<?xml version="1.0" encoding="UTF-8"?><svg id="uuid-897ed71d-e06c-41f8-9c8e-95f81da4218a" xmlns="http://www.w3.org/2000/svg" viewBox="0 0 109 39.82">
<title>Miro logo - Brandlogos.net</title><path d="M82.54,20.3v8.81h3.61v-8.27c0-3.68,5.01-3.69,5.01-3.69v-3.58s-1.4.06-2.51.31c-3.14.71-6.11,2.25-6.11,6.42Z" style="fill:#1c1c1d;"/><path d="M55.35,13.39c1.41,0,3.16.79,4.12,2.19.99-1.27,2.62-2.13,4.63-2.16,2.55-.03,5.71,1.56,5.71,6.33v9.35h-3.61v-9.35c0-1.59-1.15-2.73-2.87-2.73s-2.87,1.14-2.87,2.73v9.35h-3.61v-9.35c0-1.59-1.15-2.73-2.87-2.73s-2.9,1.14-2.9,2.73v9.35h-3.79v-15.23h3.79v1.53c1.02-1.24,2.52-2,4.28-2h0Z" style="fill:#1c1c1d;"/><path d="M78.11,14.06v15.05h-3.67v-15.05h3.67Z" style="fill:#1c1c1d;"/><path d="M76.27,11.67c1.13,0,2.05-.91,2.05-2.04s-.92-2.04-2.05-2.04-2.05.91-2.05,2.04.92,2.04,2.05,2.04Z" style="fill:#1c1c1d;"/><path d="M100.96,13.36c-4.44,0-8.04,3.58-8.04,8s3.6,8,8.04,8,8.04-3.58,8.04-8-3.6-8-8.04-8ZM100.96,25.77c-2.51,0-4.55-2.03-4.55-4.53s2.04-4.53,4.55-4.53,4.55,2.03,4.55,4.53-2.04,4.53-4.55,4.53Z" style="fill:#1c1c1d;"/><path d="M0,9.95C0,4.46,4.46,0,9.95,0h19.91c5.5,0,9.95,4.46,9.95,9.95v19.91c0,5.5-4.46,9.95-9.95,9.95H9.95c-5.5,0-9.95-4.46-9.95-9.95V9.95Z" style="fill:#fcdf50;"/><path d="M26.47,7.59h-3.61l3.01,5.29-6.63-5.29h-3.61l3.31,6.47-6.93-6.47h-3.61l3.61,8.23-3.61,16.47h3.61l6.93-17.64-3.31,17.64h3.61l6.63-18.82-3.01,18.82h3.61l6.63-20.58-6.63-4.12Z" style="fill:#1c1c1d;"/></svg>